<?xml version="1.0" standalone="no"?>
<!DOCTYPE svg PUBLIC "-//W3C//DTD SVG 20010904//EN"
 "http://www.w3.org/TR/2001/REC-SVG-20010904/DTD/svg10.dtd">
<svg version="1.0" xmlns="http://www.w3.org/2000/svg"
 width="500.000000pt" height="500.000000pt" viewBox="0 0 500.000000 500.000000"
 preserveAspectRatio="xMidYMid meet">

<g transform="translate(0.000000,500.000000) scale(0.100000,-0.100000)"
fill="#000000" stroke="none">
<path d="M1260 2645 l0 -795 185 0 185 0 2 462 3 461 110 -218 c60 -119 115
-220 122 -222 7 -3 59 -1 115 3 l102 9 59 115 c92 182 130 250 139 250 4 0 9
-192 10 -427 l3 -428 384 0 385 0 57 160 56 160 264 0 263 0 23 -60 c12 -33
39 -106 59 -162 l38 -103 208 0 c114 0 208 2 208 4 0 2 -21 50 -46 107 -25 57
-93 220 -150 362 -57 141 -110 269 -118 285 -7 15 -34 81 -59 147 -46 121
-179 453 -197 490 -5 11 -21 54 -36 95 -14 41 -31 81 -36 88 -8 9 -57 12 -183
12 l-173 0 -12 -37 c-15 -49 -71 -195 -80 -208 -4 -5 -17 -39 -30 -75 -13 -36
-33 -88 -46 -116 -12 -28 -29 -73 -37 -100 -9 -27 -36 -96 -60 -154 l-45 -105
-139 0 -138 0 3 398 2 397 -149 0 -150 0 -97 -187 c-144 -278 -282 -527 -292
-531 -5 -1 -24 21 -42 50 -48 77 -141 238 -158 273 -8 17 -50 89 -93 161 -42
72 -89 154 -104 183 l-27 51 -144 0 -144 0 0 -795z m2205 109 c34 -93 65 -179
69 -191 l7 -23 -145 0 c-81 0 -146 4 -146 9 0 8 36 106 106 289 13 34 24 69
24 78 0 47 30 -11 85 -162z m-608 -228 c54 -27 88 -62 130 -133 21 -37 27 -59
27 -107 -1 -152 -127 -278 -279 -279 -72 0 -119 18 -174 69 -110 99 -131 231
-55 346 84 127 224 169 351 104z"/>
</g>
</svg>
